<svg width="39" height="39" viewBox="0 0 39 39" fill="none" xmlns="http://www.w3.org/2000/svg">
<path d="M32.5808 6.41854C29.2299 3.06844 24.6118 1 19.4998 1C14.3878 1 9.76969 3.06844 6.41871 6.41854C6.41868 6.41857 6.41865 6.4186 6.41863 6.41863C6.4186 6.41865 6.41857 6.41868 6.41854 6.41871C3.06829 9.76984 1 14.3986 1 19.4998C1 24.6119 3.0681 29.2299 6.41858 32.5813L5.71152 33.2884L6.41871 32.5814L32.5808 6.41854ZM32.5808 6.41854L33.288 5.71152L32.581 6.41871M32.5808 32.5814L33.288 33.2884L32.581 32.5813C32.5809 32.5813 32.5809 32.5813 32.5808 32.5814Z" fill="#070707" stroke="white" stroke-width="2"/>
<path fill-rule="evenodd" clip-rule="evenodd" d="M29.7319 14.977C29.4405 14.7613 28.3933 14.7613 27.3568 14.7613C26.2985 14.7828 25.2402 14.7828 24.9918 14.8801C24.7656 14.9662 24.258 16.1972 23.5997 17.4601C22.8432 18.8861 21.926 20.2678 21.3426 20.2455C20.5762 20.2455 20.76 17.9027 20.8139 16.1649C20.8243 15.0308 20.6409 14.6635 20.479 14.567C20.0795 14.2859 18.9784 14.0167 18.9784 14.0167C18.9784 14.0167 15.6738 13.7678 15.21 15.1931C15.8468 15.2796 16.9267 15.0846 16.5056 19.5006C16.4733 19.7171 15.998 21.5307 14.4648 19.0795C14.076 18.4646 12.6081 14.7827 12.0896 14.7613C10.3937 14.7286 8.71012 14.6532 8.12748 14.977C7.57638 15.3012 8.86125 17.8274 11.0317 21.2181C12.7911 24.0035 14.6593 26.1632 17.8985 26.7028C18.5137 26.7681 20.0905 26.832 20.5981 26.5951C20.9323 26.4328 20.5111 24.0362 21.6668 23.7981C22.1744 23.7013 24.1495 26.3037 24.8944 26.5951C25.349 26.7785 26.3419 26.8539 27.3568 26.8105C28.4582 26.7785 29.71 26.919 29.8288 26.1632C30.0992 24.5112 26.4934 22.351 26.3958 21.3366C26.3092 20.6024 27.7133 19.253 28.4255 18.2162C29.3104 16.9636 30.2831 15.4523 29.7319 14.977Z" fill="white"/>
</svg>
